# xmcd
#
# Track frame offsets:
#	150
#	7387
#	17737
#	29705
#	38467
#	50332
#	58190
#	67685
#	77617
#	84457
#	94137
#	101820
#	112230
#	119302
#	124425
#
# Disc length: 1743 seconds
#
# Revision: 1
# Processed by: cddbd v1.5.2PL0 Copyright (c) Steve Scherf et al.
# Submitted via: audiograbber 1.83.01
#
DISCID=cb06cd0f
DTITLE=Jim Reeves - Exclusieve Collection - Live And Acoustic
DYEAR=1900
DGENRE=Country
TTITLE0=Billy Bayou
TTITLE1=Anne Marie
TTITLE2=Danny Boy
TTITLE3=Bimbo
TTITLE4=Four Walls
TTITLE5=Yours
TTITLE6=Teardrops In My Heart
TTITLE7=Overnight
TTITLE8=Blues In My Heart
TTITLE9=Shepherd
TTITLE10=Langauge Of Love
TTITLE11=Make Me Wonderful In Her Eyes
TTITLE12=How Many Tears From Now
TTITLE13=Chicken-hearted
TTITLE14=I'm A Hit Again
EXTD=
EXTT0=
EXTT1=
EXTT2=
EXTT3=
EXTT4=
EXTT5=
EXTT6=
EXTT7=
EXTT8=
EXTT9=
EXTT10=
EXTT11=
EXTT12=
EXTT13=
EXTT14=
PLAYORDER=
